<svg width="131" height="131" viewBox="0 0 131 131" fill="none" xmlns="http://www.w3.org/2000/svg">
<path d="M87.3333 92.7917V87.3333H70.9583V70.9583H87.3333V81.875H98.25V92.7917H92.7917V103.708H81.875V114.625H70.9583V98.25H81.875V92.7917H87.3333ZM114.625 114.625H92.7917V103.708H103.708V92.7917H114.625V114.625ZM16.375 16.375H60.0417V60.0417H16.375V16.375ZM27.2917 27.2917V49.125H49.125V27.2917H27.2917ZM70.9583 16.375H114.625V60.0417H70.9583V16.375ZM81.875 27.2917V49.125H103.708V27.2917H81.875ZM16.375 70.9583H60.0417V114.625H16.375V70.9583ZM27.2917 81.875V103.708H49.125V81.875H27.2917ZM98.25 70.9583H114.625V81.875H98.25V70.9583ZM32.75 32.75H43.6667V43.6667H32.75V32.75ZM32.75 87.3333H43.6667V98.25H32.75V87.3333ZM87.3333 32.75H98.25V43.6667H87.3333V32.75Z" fill="black"/>
</svg>
